<?xml version="1.0" encoding="utf-8"?>
<!-- Generator: Adobe Illustrator 28.1.0, SVG Export Plug-In . SVG Version: 6.00 Build 0)  -->
<svg version="1.1" id="Calque_2_00000042726040001008947690000002782431902160059312_"
	 xmlns="http://www.w3.org/2000/svg" xmlns:xlink="http://www.w3.org/1999/xlink" x="0px" y="0px" viewBox="0 0 150 103"
	 style="enable-background:new 0 0 150 103;" xml:space="preserve">
<style type="text/css">
	.st0{fill:#C4C4C4;}
	.st1{fill:#FFFFFF;}
	.st2{fill:#343333;}
</style>
<g id="Calque_4">
	<path class="st0" d="M16,13h118c8.8,0,16,7.2,16,16v58c0,8.8-7.2,16-16,16H16c-8.8,0-16-7.2-16-16V29C0,20.2,7.2,13,16,13z"/>
	<path class="st1" d="M16,0h118c8.8,0,16,7.2,16,16v58c0,8.8-7.2,16-16,16H16C7.2,90,0,82.8,0,74V16C0,7.2,7.2,0,16,0z"/>
</g>
<g id="Calque_5">
	<path class="st2" d="M45.3,21.3l21.4,22.1c0.5,0.5,0.1,1.5-0.6,1.5H53.3c-0.5,0-0.9,0.4-0.9,0.9v21.8c0,0.5-0.4,0.9-0.9,0.9H37.7
		c-0.5,0-0.9-0.4-0.9-0.9V45.8c0-0.5-0.4-0.9-0.9-0.9H23.3c-0.8,0-1.2-0.9-0.6-1.5L44,21.3C44.4,21,45,21,45.3,21.3z"/>
	<path class="st2" d="M106,21.3l21.4,22.1c0.5,0.5,0.1,1.5-0.6,1.5H114c-0.5,0-0.9,0.4-0.9,0.9v21.8c0,0.5-0.4,0.9-0.9,0.9H98.4
		c-0.5,0-0.9-0.4-0.9-0.9V45.8c0-0.5-0.4-0.9-0.9-0.9H83.9c-0.8,0-1.2-0.9-0.6-1.5l21.4-22.1C105,21,105.6,21,106,21.3L106,21.3z"/>
</g>
</svg>
